<?xml version="1.0" standalone="no"?>
<!DOCTYPE svg PUBLIC "-//W3C//DTD SVG 20010904//EN"
 "http://www.w3.org/TR/2001/REC-SVG-20010904/DTD/svg10.dtd">
<svg version="1.0" xmlns="http://www.w3.org/2000/svg"
 width="512.000000pt" height="512.000000pt" viewBox="0 0 512.000000 512.000000"
 preserveAspectRatio="xMidYMid meet">
<metadata>
Created by potrace 1.14, written by Peter Selinger 2001-2017
</metadata>
<g transform="translate(0.000000,512.000000) scale(0.100000,-0.100000)"
fill="#000000" stroke="none">
<path d="M2205 4848 c-330 -37 -674 -160 -935 -336 -150 -101 -208 -212 -197
-381 7 -121 33 -182 137 -321 96 -126 130 -157 218 -198 46 -21 76 -27 154
-30 116 -5 191 14 324 83 183 94 345 137 519 137 174 1 282 -32 370 -113 63
-58 89 -125 89 -229 1 -342 -354 -628 -858 -691 -126 -16 -136 -24 -136 -102
0 -123 66 -596 95 -677 48 -137 167 -259 295 -305 29 -11 77 -16 135 -16 148
1 275 44 348 119 36 36 40 48 61 152 14 71 27 116 37 121 7 4 65 23 127 43
429 136 782 452 946 847 89 215 121 406 113 659 -8 228 -38 350 -128 531 -191
384 -590 635 -1116 704 -126 17 -464 18 -598 3z"/>
<path d="M2112 1299 c-152 -30 -287 -159 -328 -313 -20 -73 -19 -334 1 -411
32 -123 115 -221 235 -279 l65 -31 295 0 295 0 68 32 c120 57 208 169 236 301
17 80 14 316 -5 387 -39 154 -163 275 -314 309 -76 18 -467 21 -548 5z"/>
</g>
</svg>
